<svg width="588" height="212" viewBox="0 0 588 212" fill="none" xmlns="http://www.w3.org/2000/svg">
<g clip-path="url(#clip0_170_14)">
<path d="M139.225 72.3506C137.568 71.7156 126.55 71.8368 123.84 72.8523C124.033 74.7199 124.596 82.3964 125.413 84.2691C123.744 85.0854 117.232 93.7433 117.232 93.7433L126.585 93.8164C126.585 93.8164 127.432 91.7495 127.028 90.2949C128.27 90.9267 135.759 90.1558 135.759 90.1558L139.225 72.3506Z" fill="#2E2E2E"/>
<path d="M393.222 68.3812C390.617 71.4618 387.976 73.5458 387.324 73.0359C386.671 72.5261 388.254 69.6154 390.859 66.5348C393.464 63.4541 396.105 61.3701 396.758 61.88C397.41 62.3899 395.828 65.3005 393.222 68.3812Z" stroke="#2E2E2E" stroke-width="0.845043"/>
<path d="M387.584 73.2958L394.935 73.0599L396.777 63.104" stroke="#2E2E2E" stroke-width="0.767144"/>
<path d="M393.173 73.3393L395.841 70.4279L400.803 74.865L398.639 88.3372L393.173 73.3393Z" fill="#2E2E2E" stroke="#2E2E2E" stroke-width="0.767144"/>
<path d="M365.487 57.539C365.487 57.539 368.063 56.2144 369.225 57.9829C370.683 59.4605 371.971 78.7391 371.971 78.7391C374.326 78.171 388.551 78.3534 389.419 80.1195C390.879 81.3039 390.843 85.886 389.366 86.7542C387.586 88.7929 383.534 88.3673 383.534 88.3673C382.911 92.7609 385.461 107.459 385.461 107.459L366.763 106.483L365.487 57.539Z" fill="#2E2E2E"/>
<path d="M361.438 34.3789L373.475 36.2325L374.311 42.1041L399.591 42.6055L399.619 39.0832L406.377 39.4293L407.909 31.5236L361.172 31.4514L361.438 34.3789Z" fill="#2E2E2E"/>
<path d="M406.007 33.3896L394.617 107.116L406.242 108.865L419.317 32.25L406.007 33.3896Z" fill="#191919"/>
<path d="M360.572 32.615L370.281 105.999L413.454 110.735L430.823 33.1586L360.572 32.615Z" fill="#9BBAB8" fill-opacity="0.40212"/>
<path d="M453.254 156.095C453.254 156.095 469.378 167.418 474.094 149.208C478.811 130.999 465.891 135.044 480.477 130.597C495.061 126.15 488.755 135.224 488.755 135.224" stroke="black" stroke-width="0.767144"/>
<path d="M492.59 123.643L475.331 150.878L478.61 156.709L459.023 162.984L467.096 167.09L481.055 162.949L488.416 178.35L519.556 183.156L524.929 173.97L530.812 175.857L531.759 171.069L527.775 168.913L533.46 159.627L538.854 160.913L539.719 159.311L537.653 155.098L523.336 125.543L492.59 123.643Z" fill="black" stroke="black" stroke-width="0.767144"/>
<path d="M397.43 119.162L400.32 121.673L405.884 154.062L409.219 152.844L403.255 118.379L397.43 119.162Z" fill="#707070"/>
<path d="M377.814 182.04L405.197 188.889L390.353 173.429L397.456 168.923L420.58 188.595C420.58 188.595 416.803 193.127 414.292 195.181C410.142 194.319 376.109 187.418 376.109 187.418L377.814 182.04Z" fill="black" stroke="black" stroke-width="0.767144"/>
<path d="M121.649 139.809L118.91 170.891L139.677 173.126L169.321 156.77L168.211 139.344L121.649 139.809Z" fill="black" stroke="black" stroke-width="0.767144"/>
<path d="M120.548 121.969C120.548 121.969 123.017 125.306 122.584 127.376C122.15 129.446 118.614 129.218 117.975 131.902C117.336 134.586 121.225 141.466 121.225 141.466C121.225 141.466 161.12 143.022 163.599 145.115C166.083 146.379 162.689 155.061 162.689 155.061L177.591 163.058L188.265 180.145C191.976 183.906 295.068 183.883 295.517 180.154L309.608 132.985L355.385 126.708L382.931 165.492L394.511 173.048C394.511 173.048 417.642 191.89 421.789 193.168C425.121 192.364 467.435 203.478 470.332 205.159C470.332 205.159 516.06 205.102 526.03 206.009C526.03 206.009 501.721 178.448 497.986 177.589L487.188 176.261C482.616 176.225 453.289 152.357 449.963 152.331C445.384 153.125 429.12 159.633 429.12 159.633C426.61 161.687 405.096 148.662 401.771 148.636C401.8 144.904 379.563 118.188 379.563 118.188L332.643 111.185L303.87 122.573L120.548 121.969Z" fill="#4CAF50"/>
<path d="M146.909 46.7046L11.4168 43.5677C9.35145 41.8925 8.17318 33.1734 14.0189 29.9007L152.847 32.6452L146.909 46.7046Z" fill="#4CAF50"/>
<path d="M347.872 25.4709L429.34 26.5225C429.34 26.5225 436.823 26.581 437.635 29.0756C437.635 29.0756 436.741 36.9477 434.231 39.0018C429.243 38.9628 423.008 38.914 420.104 38.0619C417.194 38.0391 418.471 34.3169 418.471 34.3169C418.471 34.3169 370.249 34.3546 362.771 33.8814C364.417 35.9678 372.217 101.135 371.363 104.032C385.466 103.987 399.461 106.857 413.307 109.336C414.108 113.075 411.984 118.864 409.061 120.5L390.779 119.527L363.815 112.267L354.742 50.4067L347.686 49.1075L347.872 25.4709Z" fill="#4CAF50"/>
<path d="M225.379 7.09758L230.298 15.8458C233.624 15.8718 257.658 25.5987 257.658 25.5987L348.506 25.7016C348.506 25.7016 373.759 10.7467 378.744 11.2004L380.031 6.23365C377.55 4.55533 335.599 0.0799772 332.676 1.71605C327.697 0.432954 274.077 -0.401002 269.904 1.64003C265.757 0.363437 228.725 4.63596 225.38 7.09824L225.379 7.09758Z" fill="#DFD320" stroke="#FFC107" stroke-width="0.767144"/>
<path d="M148.645 31.2496L253.879 31.4858L254.523 24.453L350.051 24.9065L350.183 45.722C353.931 44.9218 358.157 47.4015 358.968 49.8961L367.898 110.374C367.898 110.374 391.125 110.798 395.275 111.66C398.165 114.171 399.141 117.685 396.624 120.569L376.641 119.826L364.884 119.734C360.763 115.14 324.64 109.282 306.635 125.73L115.597 122.477L111.373 92.6043L133.05 93.1885L148.645 31.2496Z" fill="#4CAF50"/>
<path d="M9.4473 35.9635C8.99234 40.9363 1.68432 56.0517 0.410715 59.3588C7.98362 58.0524 18.7826 58.1368 22.5141 59.4101C22.5141 59.4101 29.6723 47.8546 36.7686 44.1776C35.1354 40.4325 34.9484 39.6519 33.574 36.6169L9.4473 35.9635Z" fill="black" stroke="black" stroke-width="0.767144"/>
<path d="M498.4 180.087L538.619 193.257L540.629 201.982L568.034 205.928L587.993 205.255L568.963 193.495L546.638 177.976L540.138 158.848L536.803 160.066L544.956 180.451L569.763 197.647L500.547 171.395L498.4 180.087Z" fill="#4CAF50"/>
<path d="M449.898 151.799L439.639 196.628L470.334 205.162L526.67 206.017L500.901 177.202L485.534 175.423L449.898 151.799Z" fill="#DFD320"/>
<path d="M122.61 70.9809L138.406 71.1044M115.385 69.3264L112.455 67.3767L139.477 67.1732M121.402 92.5353L119.415 80.9086L129.45 47.1894M113.151 92.0841C113.151 92.0841 109.16 80.789 110.366 76.9863L119.454 42.749L139.733 43.2008C141.79 43.2168 143.186 52.6115 143.186 52.6115M113.239 111.732C109.122 111.993 108.135 98.9615 113.483 91.6722L125.31 46.9026L144.407 47.643M110.097 111.885C103.945 109.198 105.449 104.812 109.676 90.7697L122.901 42.9551M115.386 111.774L102.741 112.258L100.535 93.4799" stroke="black" stroke-width="0.767144" stroke-linecap="round" stroke-linejoin="round"/>
<path d="M205.735 60.8678C205.629 74.2253 194.097 84.9648 179.976 84.8546C165.856 84.7445 154.494 73.8265 154.599 60.469C154.705 47.1114 166.237 36.372 180.359 36.4821C194.479 36.5922 205.841 47.5102 205.735 60.8678Z" fill="#606060" stroke="black" stroke-width="1.69695"/>
<path d="M187.778 61.4534C187.746 65.4908 184.307 68.7372 180.098 68.7043C175.888 68.6715 172.502 65.3719 172.534 61.3345C172.566 57.2971 176.004 54.0508 180.213 54.0836C184.423 54.1164 187.81 57.416 187.778 61.4534Z" fill="black" stroke="black" stroke-width="0.80441" stroke-linecap="round" stroke-linejoin="round"/>
<path d="M179.915 53.7778L179.47 36.1794" stroke="black" stroke-width="0.767144"/>
<path d="M187.228 58.5239L204.031 52.7921" stroke="black" stroke-width="0.767144"/>
<path d="M183.92 67.8818L194.7 80.5775" stroke="black" stroke-width="0.767144"/>
<path d="M172.823 58.706L156.115 52.7104" stroke="black" stroke-width="0.767144"/>
<path d="M157.679 78.5309L173.117 59.0032L182.817 59.0789C180.986 67.8533 179.963 85.4481 180.819 88.6799C168.778 87.413 162.346 82.9644 157.679 78.5293L157.679 78.5309Z" fill="#4CAF50"/>
<path d="M116.358 99.9076L118.934 108.727L313.837 107.318C313.865 103.798 314.777 99.9924 317.443 97.3734L116.358 99.9076Z" fill="#DFD320"/>
<path d="M193.586 181.247C193.452 198.179 179.189 211.793 161.728 211.657C144.267 211.521 130.22 197.685 130.354 180.754C130.488 163.823 144.752 150.208 162.213 150.344C179.674 150.48 193.72 164.316 193.586 181.247Z" fill="#1C1C1C"/>
<path d="M179.685 182.243C179.61 191.64 172.013 199.2 162.715 199.127C153.417 199.055 145.94 191.378 146.014 181.98C146.088 172.583 153.686 165.023 162.984 165.096C172.282 165.168 179.759 172.845 179.685 182.243Z" fill="url(#paint0_radial_170_14)"/>
<path d="M167.282 182.146C167.264 184.465 165.265 186.329 162.818 186.31C160.371 186.291 158.403 184.396 158.421 182.077C158.439 179.758 160.438 177.894 162.885 177.913C165.332 177.932 167.3 179.827 167.282 182.146Z" fill="#DFD320"/>
<path d="M383.336 166.743C383.137 191.936 362.132 212.195 336.42 211.995C310.709 211.794 290.027 191.209 290.226 166.017C290.425 140.825 311.43 120.566 337.142 120.766C362.853 120.967 383.535 141.551 383.336 166.743Z" fill="#1C1C1C"/>
<path d="M364.61 167.011C364.49 182.11 351.844 194.253 336.365 194.132C320.885 194.011 308.433 181.673 308.553 166.574C308.672 151.475 321.319 139.332 336.798 139.453C352.278 139.574 364.729 151.912 364.61 167.011Z" fill="url(#paint1_radial_170_14)"/>
<path d="M343.854 166.422C343.823 170.321 340.629 173.458 336.721 173.427C332.812 173.397 329.668 170.211 329.699 166.312C329.73 162.413 332.924 159.276 336.832 159.307C340.741 159.337 343.884 162.523 343.854 166.422Z" fill="#DFD320"/>
</g>
<defs>
<radialGradient id="paint0_radial_170_14" cx="0" cy="0" r="1" gradientUnits="userSpaceOnUse" gradientTransform="translate(162.859 182.123) rotate(0.446881) scale(23.7016 23.424)">
<stop stop-color="#393939"/>
<stop offset="0.9999" stop-color="#DFD320"/>
<stop offset="1" stop-color="#DFD320"/>
</radialGradient>
<radialGradient id="paint1_radial_170_14" cx="0" cy="0" r="1" gradientUnits="userSpaceOnUse" gradientTransform="translate(336.585 166.788) rotate(-1.09571) scale(39.9098 35.4615)">
<stop/>
<stop offset="1" stop-color="#DFD320"/>
</radialGradient>
<clipPath id="clip0_170_14">
<rect width="588" height="212" fill="white"/>
</clipPath>
</defs>
</svg>
