<svg width="186" height="61" viewBox="0 0 186 61" fill="none" xmlns="http://www.w3.org/2000/svg">
<path d="M23.8405 4.63286L27.0475 3.27563C29.7377 9.60681 26.8931 16.8674 20.6946 19.4906L23.8263 26.8608C24.0177 27.3112 23.8135 27.8324 23.3725 28.019L21.7691 28.6976C21.3281 28.8842 20.8108 28.6684 20.6194 28.218L17.4877 20.8479C14.7975 14.5167 17.6421 7.25612 23.8405 4.63286ZM3.20695 9.50059C7.42609 7.71499 12.1053 8.54261 15.5185 11.2466C14.7873 13.3797 14.5582 15.6928 14.9022 18.0049C9.00052 19.7961 2.52057 16.7898 -1.82184e-07 10.8578L3.20695 9.50059Z" fill="#7ABC27"/>
<path d="M160.852 4.4556L157.395 3.53113C155.563 10.3561 159.495 17.3389 166.177 19.1257L164.044 27.0708C163.913 27.5563 164.196 28.0575 164.671 28.1846L166.4 28.6469C166.875 28.774 167.37 28.4808 167.501 27.9952L169.634 20.0502C171.466 13.2252 167.534 6.24242 160.852 4.4556ZM182.543 6.47129C177.995 5.25504 173.352 6.76326 170.265 10.0005C171.314 12.0668 171.878 14.3878 171.858 16.7894C178.119 17.7718 184.283 13.7904 186 7.39576L182.543 6.47129Z" fill="#7ABC27"/>
<path d="M18.1139 21.5467H169.245L162.78 47.138L94.1831 61L26.594 47.138L18.1139 21.5467Z" fill="#7ABC27"/>
<path d="M28.6425 45.2599L21.1956 23.85H166.4L160.813 45.267L94.2013 58.134L28.6425 45.2599Z" fill="#7ABC27" stroke="white" stroke-width="1.7"/>
</svg>
