<?xml version="1.0" encoding="iso-8859-1"?>
<!-- Generator: Adobe Illustrator 19.0.0, SVG Export Plug-In . SVG Version: 6.00 Build 0)  -->
<svg version="1.1" id="Capa_1" xmlns="http://www.w3.org/2000/svg" xmlns:xlink="http://www.w3.org/1999/xlink" x="0px" y="0px"
	 viewBox="0 0 489.915 489.915" style="enable-background:new 0 0 489.915 489.915;" xml:space="preserve">
<g>
	<g>
		<path d="M226.2,440.233c-14.6,5.2-30.2,8.3-46.9,8.3c-76.1,0-138.7-62.6-138.7-139.7c0-59.4,88.6-189.7,137.6-256.5
			c24,31.3,66.7,90.7,99,149.1c6.3,10.4,18.8,13.6,28.1,8.3c10.4-6.3,13.6-18.8,8.3-28.1c-47.8-85.4-115.6-170.9-117.6-174
			c-8.3-9.4-25-9.4-32.3,0C147,28.433,0,216.133,0,308.933c0,99,80.3,180.4,179.3,180.4c20.9,0,41.7-4.2,60.5-10.4
			c11.5-4.2,16.7-15.6,12.5-26.1C248.1,441.333,236.6,436.133,226.2,440.233z"/>
		<path d="M471.2,319.333l-11.2-0.5c-2-15.5-7.3-30.1-15.1-43l8.6-7.5c9.4-8.3,9.4-20.9,2.1-29.2c-8.3-9.4-20.9-9.4-29.2-2.1l-9.1,8
			c-11.3-8.6-24.2-14.9-38.3-18.5l0.5-11.4c1-11.5-7.3-20.9-18.8-21.9s-20.9,7.3-21.9,18.8l-0.6,12c-15.1,1.8-29.3,6.9-41.8,14.4
			l-7.7-8.7c-8.3-8.3-20.9-9.4-29.2-2.1c-8.3,8.3-9.4,20.9-2.1,29.2l8.2,9.3c-8.7,11.5-15.1,24.8-18.7,39.2l-11.4-0.5
			c-11.5-1-20.9,7.3-21.9,18.8s7.3,20.9,18.8,21.9l12.1,0.5c1.8,15.1,6.6,29.3,14.1,42l-8.5,7.5c-9.4,8.3-9.4,20.9-2.1,29.2
			c8.3,9.4,20.9,9.4,29.2,2.1l8.9-7.8c1.2,0.9,2.4,1.8,3.6,2.7c10.5,7.7,22.9,13.5,35.9,16.8l-0.5,11.3c-1,11.5,7.3,20.9,18.8,21.9
			h1c10.4,0,19.8-8.3,20.9-18.8l0.5-12.5c14.7-2.1,28.6-7.1,40.9-14.5l7.5,8.6c8.3,8.3,20.9,9.4,29.2,2.1c8.3-8.3,9.4-20.9,2.1-29.2
			l-7.9-9c8.7-11.3,15.3-24.5,19.1-38.7l10.7,0.5h1c11.5,0,19.8-8.3,20.9-18.8C491,329.733,482.7,320.433,471.2,319.333z
			 M351.3,402.333c-38.7,0-70-31.3-70-70s31.3-70,70-70s70,31.3,70,70S390,402.333,351.3,402.333z"/>
	</g>
</g>
<g>
</g>
<g>
</g>
<g>
</g>
<g>
</g>
<g>
</g>
<g>
</g>
<g>
</g>
<g>
</g>
<g>
</g>
<g>
</g>
<g>
</g>
<g>
</g>
<g>
</g>
<g>
</g>
<g>
</g>
</svg>
