<?xml version="1.0" encoding="iso-8859-1"?>
<!-- Generator: Adobe Illustrator 19.0.0, SVG Export Plug-In . SVG Version: 6.00 Build 0)  -->
<svg version="1.1" id="Layer_1" xmlns="http://www.w3.org/2000/svg" xmlns:xlink="http://www.w3.org/1999/xlink" x="0px" y="0px"
	 viewBox="0 0 512 512" style="enable-background:new 0 0 512 512;" xml:space="preserve">
<g>
	<path style="fill:#4CAF50;" d="M494.933,213.333v8.875c-17.493-14.848-38.229-25.173-60.501-30.464l-2.475-12.544H460.8
		C479.659,179.2,494.933,194.475,494.933,213.333z"/>
	<path style="fill:#4CAF50;" d="M256,332.8c0,5.717,0.341,11.435,1.024,17.067h-69.291c0-51.797-42.069-93.867-93.867-93.867
		c-2.645,0-5.205,0.171-7.765,0.427c1.024-6.059,3.243-12.203,6.229-17.835c0.512,0.171,1.024,0.341,1.536,0.341h17.067
		c4.693,0,8.533-3.84,8.533-8.533s-3.84-8.533-8.533-8.533h-4.949c6.485-5.205,13.909-8.533,22.016-8.533h92.587l-7.253,76.032
		c-0.171,2.389,0.597,4.693,2.219,6.485c1.621,1.792,3.925,2.816,6.315,2.816h38.315C257.536,309.675,256,321.024,256,332.8z"/>
</g>
<g>
	<path style="fill:#FFFFFF;" d="M416.427,188.672c-5.035-0.597-10.155-0.939-15.36-0.939c-62.037,0-114.944,39.168-135.595,94.037
		c-0.341,0-0.597-0.171-0.939-0.171h-33.28l15.445-162.133h155.904L416.427,188.672z"/>
	<path style="fill:#FFFFFF;" d="M401.067,238.933c-51.797,0-93.867,42.069-93.867,93.867s42.069,93.867,93.867,93.867
		s93.867-42.069,93.867-93.867S452.864,238.933,401.067,238.933z M401.067,384c-28.245,0-51.2-22.955-51.2-51.2
		c0-28.245,22.955-51.2,51.2-51.2c28.245,0,51.2,22.955,51.2,51.2C452.267,361.045,429.312,384,401.067,384z"/>
</g>
<circle style="fill:#FFC107;" cx="401.067" cy="332.8" r="34.133"/>
<path style="fill:#FFFFFF;" d="M93.867,273.067c-42.325,0-76.8,34.475-76.8,76.8s34.475,76.8,76.8,76.8s76.8-34.475,76.8-76.8
	S136.192,273.067,93.867,273.067z M93.867,384c-18.859,0-34.133-15.275-34.133-34.133c0-18.859,15.275-34.133,34.133-34.133
	S128,331.008,128,349.867C128,368.725,112.725,384,93.867,384z"/>
<circle style="fill:#FFC107;" cx="93.867" cy="349.867" r="17.067"/>
<path d="M401.067,221.867c-61.184,0-110.933,49.749-110.933,110.933s49.749,110.933,110.933,110.933S512,393.984,512,332.8
	S462.251,221.867,401.067,221.867z M401.067,426.667c-51.797,0-93.867-42.069-93.867-93.867s42.069-93.867,93.867-93.867
	s93.867,42.069,93.867,93.867S452.864,426.667,401.067,426.667z"/>
<path d="M401.067,281.6c-28.245,0-51.2,22.955-51.2,51.2c0,28.245,22.955,51.2,51.2,51.2c28.245,0,51.2-22.955,51.2-51.2
	C452.267,304.555,429.312,281.6,401.067,281.6z M401.067,366.933c-18.859,0-34.133-15.275-34.133-34.133
	s15.275-34.133,34.133-34.133c18.859,0,34.133,15.275,34.133,34.133S419.925,366.933,401.067,366.933z"/>
<path d="M93.867,315.733c-18.859,0-34.133,15.275-34.133,34.133c0,18.859,15.275,34.133,34.133,34.133S128,368.725,128,349.867
	C128,331.008,112.725,315.733,93.867,315.733z M93.867,366.933c-9.387,0-17.067-7.68-17.067-17.067
	c0-9.387,7.68-17.067,17.067-17.067s17.067,7.68,17.067,17.067C110.933,359.253,103.253,366.933,93.867,366.933z"/>
<path d="M460.8,162.133h-32.256l-8.533-42.667h6.656c4.693,0,8.533-3.84,8.533-8.533V76.8c0-4.693-3.84-8.533-8.533-8.533h-179.2
	c-23.552,0-42.667,19.115-42.667,42.667c0,4.693,3.84,8.533,8.533,8.533h16.213l-7.339,76.885c-0.085,0-0.256-0.085-0.341-0.085H128
	c-32.427,0-57.088,32.427-59.477,63.317C29.013,270.677,0,306.944,0,349.867c0,51.797,42.069,93.867,93.867,93.867
	c45.909,0,84.139-33.195,92.245-76.8h80.811c2.56,0,4.949-1.109,6.571-3.072c1.621-1.963,2.304-4.523,1.792-7.083
	c-1.451-7.851-2.219-15.872-2.219-23.979c0-70.571,57.429-128,128-128c36.693,0,71.68,15.787,96,43.349
	c2.304,2.645,6.059,3.584,9.387,2.304c3.328-1.195,5.547-4.437,5.547-7.936v-29.184C512,185.088,489.045,162.133,460.8,162.133z
	 M93.867,426.667c-42.325,0-76.8-34.475-76.8-76.8s34.475-76.8,76.8-76.8s76.8,34.475,76.8,76.8S136.192,426.667,93.867,426.667z
	 M257.024,349.867h-69.291c0-51.797-42.069-93.867-93.867-93.867c-2.645,0-5.205,0.171-7.765,0.427
	c1.024-6.059,3.243-12.203,6.229-17.835c0.512,0.171,1.024,0.341,1.536,0.341h17.067c4.693,0,8.533-3.84,8.533-8.533
	s-3.84-8.533-8.533-8.533h-4.949c6.485-5.205,13.909-8.533,22.016-8.533h92.587l-7.253,76.032c-0.171,2.389,0.597,4.693,2.219,6.485
	c1.621,1.792,3.925,2.816,6.315,2.816h38.315C257.536,309.675,256,321.024,256,332.8C256,338.517,256.341,344.235,257.024,349.867z
	 M401.067,187.733c-62.037,0-114.944,39.168-135.595,94.037c-0.341,0-0.597-0.171-0.939-0.171h-33.28l15.445-162.133h155.904
	l13.824,69.205C411.392,188.075,406.272,187.733,401.067,187.733z M418.133,102.4H223.317c3.499-9.899,13.056-17.067,24.149-17.067
	h170.667V102.4z M494.933,222.208c-17.493-14.848-38.229-25.173-60.501-30.464l-2.475-12.544H460.8
	c18.859,0,34.133,15.275,34.133,34.133V222.208z"/>
<path style="fill:#4CAF50;" d="M418.133,85.333V102.4H223.317c3.499-9.899,13.056-17.067,24.149-17.067H418.133z"/>
<path style="fill:#F4F4F4;" d="M462.95,262.383c14.549,16.529,23.45,38.153,23.45,61.884c0,51.797-42.069,93.867-93.867,93.867
	c-23.731,0-45.355-8.9-61.884-23.45c17.203,19.567,42.351,31.983,70.417,31.983c51.797,0,93.867-42.069,93.867-93.867
	C494.933,304.734,482.517,279.586,462.95,262.383z"/>
<path style="fill:#FFFFFF;" d="M360.892,364.442c-6.886-8.713-11.025-19.695-11.025-31.642c0-28.245,22.955-51.2,51.2-51.2
	c11.947,0,22.929,4.139,31.642,11.025c-9.378-11.895-23.876-19.558-40.175-19.558c-28.245,0-51.2,22.955-51.2,51.2
	C341.333,340.565,348.996,355.064,360.892,364.442z"/>
<path style="fill:#F9A825;" d="M420.531,304.802c3.849,5.53,6.135,12.22,6.135,19.465c0,18.859-15.275,34.133-34.133,34.133
	c-7.245,0-13.935-2.287-19.465-6.135c6.17,8.849,16.384,14.669,27.998,14.669c18.859,0,34.133-15.275,34.133-34.133
	C435.2,321.186,429.38,310.972,420.531,304.802z"/>
<path style="fill:#FFFFFF;" d="M65.869,369.331c-3.849-5.53-6.135-12.22-6.135-19.465c0-18.859,15.275-34.133,34.133-34.133
	c7.245,0,13.935,2.287,19.465,6.135c-6.17-8.849-16.384-14.669-27.998-14.669c-18.859,0-34.133,15.275-34.133,34.133
	C51.2,352.947,57.02,363.162,65.869,369.331z"/>
<path style="fill:#F4F4F4;" d="M143.667,291.533c11.486,13.423,18.466,30.805,18.466,49.801c0,42.325-34.475,76.8-76.8,76.8
	c-18.995,0-36.378-6.98-49.801-18.466c14.097,16.486,35.004,26.999,58.334,26.999c42.325,0,76.8-34.475,76.8-76.8
	C170.667,326.537,160.154,305.63,143.667,291.533z"/>
<path style="fill:#F9A825;" d="M100.855,334.345c0.973,2.142,1.545,4.497,1.545,6.989c0,9.387-7.68,17.067-17.067,17.067
	c-2.492,0-4.847-0.572-6.989-1.545c2.688,5.922,8.627,10.078,15.522,10.078c9.387,0,17.067-7.68,17.067-17.067
	C110.933,342.972,106.778,337.033,100.855,334.345z"/>
<path style="fill:#F4F4F4;" d="M402.603,119.467H246.699l-1.613,16.896h142.157l10.291,51.507c1.178-0.026,2.347-0.137,3.533-0.137
	c5.205,0,10.325,0.341,15.36,0.939L402.603,119.467z"/>
<g>
	<path style="fill:#388E3C;" d="M186.103,332.8c1.024,5.547,1.63,11.23,1.63,17.067h69.291C256.341,344.235,256,338.517,256,332.8
		H186.103z"/>
	<path style="fill:#388E3C;" d="M460.8,179.2h-13.824c18.321,0,33.143,14.447,33.98,32.563c4.847,3.183,9.523,6.656,13.978,10.445
		v-8.875C494.933,194.475,479.659,179.2,460.8,179.2z"/>
</g>
<g>
</g>
<g>
</g>
<g>
</g>
<g>
</g>
<g>
</g>
<g>
</g>
<g>
</g>
<g>
</g>
<g>
</g>
<g>
</g>
<g>
</g>
<g>
</g>
<g>
</g>
<g>
</g>
<g>
</g>
</svg>
